<?xml version="1.0" encoding="UTF-8"?><svg id="Layer_2" xmlns="http://www.w3.org/2000/svg" viewBox="0 0 429.54 115.39"><defs><style>.cls-1{fill:#fff;}.cls-2{fill:#ffcc03;}</style></defs><g id="Layer_1-2"><g><path class="cls-1" d="M107.77,38.21h7.64v-15.29h22.93V0h-30.57V38.21Zm7.64-30.57h15.28v7.64h-15.28V7.64Z"/><polygon class="cls-1" points="145.98 7.64 153.62 7.64 153.62 30.57 145.98 30.57 145.98 38.21 168.91 38.21 168.91 30.57 161.27 30.57 161.27 7.64 168.91 7.64 168.91 0 145.98 0 145.98 7.64"/><rect class="cls-1" x="199.48" y="22.93" width="7.64" height="15.29"/><rect class="cls-1" x="184.2" y="15.29" width="15.28" height="7.64"/><rect class="cls-1" x="176.55" y="22.93" width="7.64" height="15.29"/><rect class="cls-1" x="176.55" width="7.64" height="15.29"/><rect class="cls-1" x="199.48" width="7.64" height="15.29"/><polygon class="cls-1" points="214.77 38.21 245.34 38.21 245.34 30.57 222.41 30.57 222.41 22.93 237.7 22.93 237.7 15.29 222.41 15.29 222.41 7.64 245.34 7.64 245.34 0 214.77 0 214.77 38.21"/><polygon class="cls-1" points="260.63 0 252.99 0 252.99 38.21 283.55 38.21 283.55 30.57 260.63 30.57 260.63 0"/><polygon class="cls-1" points="321.77 7.64 321.77 0 291.2 0 291.2 22.93 314.13 22.93 314.13 30.57 291.2 30.57 291.2 38.21 321.77 38.21 321.77 15.29 298.84 15.29 298.84 7.64 321.77 7.64"/></g><path class="cls-2" d="M47.25,56.42c8.81,0,14.92,1.43,18.33,4.29,6.83,4.44,6.42,29.04,1.14,34.52-6.26,8.51-38.18,3.94-48.96,5.03v14.53H0V56.42H47.25Zm5.51,22.14c-.08-7.02-2.75-7.77-9.45-7.96,0,0-25.55,0-25.55,0v15.49h25.81c6.39-.2,9.11-.8,9.19-7.52Z"/><path class="cls-2" d="M120.84,55.81c22.35,.23,42.63-3.2,41.21,25.9,1.19,35.7-9.98,33.14-40.95,33.6-27.22-.27-40.98,2.44-39.02-30.54-1.1-31.99,12.6-28.25,38.76-28.96Zm-9.62,45.06c4.65,.13,14,.2,18.64,.09,8.9-.45,13.96,.11,14.09-9.65-.25-5.67,1.55-14.7-2.28-19-5.74-4.14-21.5-1.5-28.35-2.15-12.1-.73-13.79,4.56-13.3,14.65,.2,10.17-.63,16.45,11.2,16.06Z"/><path class="cls-2" d="M234.15,100.17v14.61h-58.1V56.42h17.76v43.75h40.34Z"/><path class="cls-2" d="M244.04,114.78V56.42h17.76v58.36h-17.76Z"/><path class="cls-2" d="M350.61,95.09c1.6,23.97-17.75,19.5-35.44,20.3-18.03-.56-39.9,2.53-38.67-19.08-.71-18.09-3.3-41.3,20.82-39.99,7.02-.16,22.41-.67,28.61-.31,15.12-.31,24.57,2.71,23.97,20.96h-17.24c.44-9.68-11.89-5.95-18.11-6.74-4.66,.21-17.21-.82-18.86,3.05-2.4,2.93-2.47,22.02,.31,24.71,1.45,3.21,13.2,2.93,18.11,3.04,7.31-.78,20.07,2.98,18.99-8.49h17.41l.09,2.54Z"/><path class="cls-2" d="M429.54,56.42v13.3h-47.34v9.97h44.19v11.55h-44.19v10.32h47.34v13.21h-65.1V56.42h65.1Z"/></g></svg>